PathFileType	4	(X/Y/Z)	5_coords_data.trc
DataRate	CameraRate	NumFrames	NumMarkers	Units	OrigDataRate	OrigDataStartFrame	OrigNumFrames
30.0	30.0	5	21	m	30.0	43	63
Frame#	Time	THUMB_TIP	THUMB_IP	THUMB_MCP	THUMB_CMC	INDEX_TIP	INDEX_DIP	INDEX_PIP	INDEX_MCP	MIDDLE_TIP	MIDDLE_DIP	MIDDLE_PIP	MIDDLE_MCP	RING_TIP	RING_DIP	RING_PIP	RING_MCP	PINKY_TIP	PINKY_DIP	PINKY_PIP	PINKY_MCP	WRIST
X1	Y1	Z1	X2	Y2	Z2	X3	Y3	Z3	X4	Y4	Z4	X5	Y5	Z5	X6	Y6	Z6	X7	Y7	Z7	X8	Y8	Z8	X9	Y9	Z9	X10	Y10	Z10	X11	Y11	Z11	X12	Y12	Z12	X13	Y13	Z13	X14	Y14	Z14	X15	Y15	Z15	X16	Y16	Z16	X17	Y17	Z17	X18	Y18	Z18	X19	Y19	Z19	X20	Y20	Z20	X21	Y21	Z21
42	1.4	-0.026878700256347657	-0.1677590026855469	0.98847802734375	-0.02353300094604492	-0.1438000030517578	0.9982789916992187	-0.03191410064697266	-0.1258560028076172	1.02027001953125	-0.03045050048828125	-0.09331759643554688	1.032	0.02088800048828125	-0.12419400024414062	0.932573974609375	-7.178650051355301e-05	-0.12099500274658204	0.9365050048828125	-0.02143000030517578	-0.11730699920654297	0.9452059936523437	-0.04093299865722656	-0.10976699829101562	0.977531005859375	0.031373899459838865	-0.10211100006103516	0.9219130249023437	0.009465720176696777	-0.09981890106201172	0.9284760131835937	-0.01702400016784668	-0.09636740112304687	0.9399219970703125	-0.04169079971313477	-0.0892270965576172	0.9716909790039062	0.02817099952697754	-0.08009230041503906	0.92889501953125	0.007099730014801025	-0.07630860137939453	0.9310369873046875	-0.018229000091552733	-0.0731146011352539	0.9397979736328125	-0.038461799621582034	-0.0706156997680664	0.9732150268554688	0.016767499923706054	-0.06223820114135742	0.9425800170898437	-0.000709810972213745	-0.0574286003112793	0.943927001953125	-0.01697599983215332	-0.05502220153808594	0.9513720092773438	-0.030277700424194337	-0.05346559906005859	0.9764290161132813	-0.045428600311279294	-0.06193199920654297	1.0449300537109374
43	1.4333333333333333	-0.026118000030517577	-0.16678700256347656	0.9882459716796875	-0.02289889907836914	-0.14292799377441406	0.9983090209960938	-0.031831499099731445	-0.12501000213623048	1.0201300048828126	-0.03086109924316406	-0.09267289733886719	1.032030029296875	0.016401899337768554	-0.12225399780273437	0.9203759765625	-0.003057250022888183	-0.11904299926757812	0.9301160278320313	-0.022113000869750977	-0.11556500244140624	0.9433079833984375	-0.038545501708984374	-0.10880799865722657	0.9766129760742187	0.026088199615478515	-0.09834819793701172	0.9084739990234375	0.006268700122833252	-0.09665959930419922	0.9209409790039063	-0.01744879913330078	-0.09401229858398437	0.937906005859375	-0.039167301177978515	-0.08831089782714843	0.9708829956054688	0.023336299896240233	-0.07640480041503907	0.91539501953125	0.003491489887237549	-0.07319840240478516	0.9240540161132812	-0.019454200744628905	-0.07067630004882812	0.9382000122070312	-0.03630009841918945	-0.06964920043945312	0.9729249877929688	0.014875399589538573	-0.057476699829101564	0.9341259765625	-0.002428780078887939	-0.05375320053100586	0.94052001953125	-0.017087299346923827	-0.05236280059814453	0.9511439819335937	-0.02871980094909668	-0.05263560104370117	0.9768300170898437	-0.046495201110839844	-0.06153390121459961	1.04493994140625
44	1.4666666666666666	-0.024329700469970704	-0.16655400085449218	0.98968701171875	-0.021357000350952147	-0.1424810028076172	0.9994650268554688	-0.03097200012207031	-0.12414199829101563	1.0207899780273437	-0.03088559913635254	-0.09173390197753906	1.032510009765625	0.010876099586486816	-0.11989199829101563	0.9117379760742188	-0.006014760017395019	-0.11722200012207032	0.9260349731445312	-0.022262399673461913	-0.11414800262451172	0.9427440185546875	-0.03618220138549805	-0.10798699951171875	0.9765999755859375	0.017997400283813476	-0.09440519714355469	0.8977630004882813	0.001644260048866272	-0.0939760971069336	0.9150880126953125	-0.01841990089416504	-0.09225969696044922	0.9365280151367188	-0.03666400146484375	-0.0876406021118164	0.9708109741210937	0.01598200035095215	-0.07260469818115234	0.9047379760742188	-0.0012797800302505491	-0.07025749969482421	0.9191640014648438	-0.020744300842285155	-0.06875589752197266	0.9378200073242188	-0.03433190155029297	-0.06900350189208984	0.972927978515625	0.009893879890441895	-0.051679798126220707	0.9265230102539063	-0.005727759838104248	-0.04976620101928711	0.9379530029296875	-0.01816629981994629	-0.04987599945068359	0.9513170166015625	-0.02752090072631836	-0.05197249984741211	0.9770430297851562	-0.04742720031738281	-0.060703300476074216	1.045239990234375
45	1.5	-0.023803300857543945	-0.16591900634765624	0.9908590087890625	-0.02075900077819824	-0.14180599975585936	1.0004299926757811	-0.03060110092163086	-0.12327400207519532	1.0213300170898438	-0.030881399154663085	-0.09084780120849609	1.033	0.005911009788513184	-0.11735700225830079	0.906469970703125	-0.008328129768371582	-0.11537000274658203	0.9238150024414062	-0.02214870071411133	-0.11279000091552735	0.9427449951171875	-0.03497029876708985	-0.1071230010986328	0.9770989990234376	0.010290900230407714	-0.09123909759521484	0.8915479736328125	-0.0028700499534606927	-0.09169740295410156	0.91177001953125	-0.019420400619506836	-0.09080899810791015	0.9361370239257812	-0.03498809814453125	-0.0869209976196289	0.9711710205078125	0.009075619697570802	-0.07004450225830078	0.898406982421875	-0.005076069831848143	-0.06847810363769531	0.9166749877929687	-0.02128580093383789	-0.06766110229492188	0.938281005859375	-0.03312519836425781	-0.0683729019165039	0.973447021484375	0.004820650100708008	-0.04787189865112305	0.9215659790039062	-0.008341609954833984	-0.047493301391601565	0.9364539794921874	-0.018572200775146486	-0.04849610137939453	0.9516270141601563	-0.026862499237060546	-0.05147029876708984	0.9773309936523438	-0.047994701385498044	-0.05997079849243164	1.04581005859375
46	1.5333333333333334	-0.02477120018005371	-0.16551400756835938	0.991530029296875	-0.021236499786376952	-0.14136500549316405	1.0010800170898437	-0.030817699432373048	-0.12254299926757813	1.0218400268554688	-0.03104560089111328	-0.09018879699707032	1.03356005859375	7.4930198490619e-05	-0.11580699920654297	0.9029810180664063	-0.011620800018310546	-0.11424700164794922	0.922541015625	-0.02317620086669922	-0.111875	0.9429530029296875	-0.03418899917602539	-0.10650800323486329	0.977531005859375	0.004646959781646728	-0.08934269714355468	0.8884169921875	-0.005903639793395996	-0.09039649963378907	0.910218017578125	-0.019934600830078125	-0.08997080230712891	0.9362990112304688	-0.033869701385498045	-0.08642030334472656	0.9716610107421875	0.003565700054168701	-0.06884960174560546	0.8948330078125	-0.007929049968719482	-0.06769100189208985	0.915385009765625	-0.02143090057373047	-0.06707029724121094	0.9387979736328125	-0.032076499938964845	-0.06795099639892578	0.9740770263671875	0.000628575026988983	-0.04551689910888672	0.9188480224609376	-0.010209699630737305	-0.04621960067749024	0.9359959716796875	-0.018672899246215822	-0.04781380081176758	0.952260986328125	-0.026019899368286133	-0.05124819946289062	0.9778179931640625	-0.04834799957275391	-0.05932289886474609	1.04631005859375
